<svg width="72" height="96" viewBox="0 0 72 96" fill="none" xmlns="http://www.w3.org/2000/svg">
<path fill-rule="evenodd" clip-rule="evenodd" d="M12 0C8.8174 0 5.76515 1.26428 3.51472 3.51472C1.26428 5.76515 0 8.8174 0 12V84C0 87.1826 1.26428 90.2348 3.51472 92.4853C5.76515 94.7357 8.8174 96 12 96H60C63.1826 96 66.2348 94.7357 68.4853 92.4853C70.7357 90.2348 72 87.1826 72 84V32.484C71.9993 29.3017 70.7346 26.2499 68.484 24L48 3.516C45.7501 1.26541 42.6983 0.000679649 39.516 0H12ZM42 36C42 34.4087 41.3679 32.8826 40.2426 31.7574C39.1174 30.6321 37.5913 30 36 30C34.4087 30 32.8826 30.6321 31.7574 31.7574C30.6321 32.8826 30 34.4087 30 36V48H18C16.4087 48 14.8826 48.6321 13.7574 49.7574C12.6321 50.8826 12 52.4087 12 54C12 55.5913 12.6321 57.1174 13.7574 58.2426C14.8826 59.3679 16.4087 60 18 60H30V72C30 73.5913 30.6321 75.1174 31.7574 76.2426C32.8826 77.3679 34.4087 78 36 78C37.5913 78 39.1174 77.3679 40.2426 76.2426C41.3679 75.1174 42 73.5913 42 72V60H54C55.5913 60 57.1174 59.3679 58.2426 58.2426C59.3679 57.1174 60 55.5913 60 54C60 52.4087 59.3679 50.8826 58.2426 49.7574C57.1174 48.6321 55.5913 48 54 48H42V36Z" fill="white"/>
</svg>
