<svg width="20" height="20" viewBox="0 0 20 20" fill="none" xmlns="http://www.w3.org/2000/svg">
<path fill-rule="evenodd" clip-rule="evenodd" d="M9.99844 19.5999C12.5445 19.5999 14.9863 18.5885 16.7867 16.7881C18.587 14.9878 19.5984 12.546 19.5984 9.9999C19.5984 7.45382 18.587 5.01203 16.7867 3.21168C14.9863 1.41133 12.5445 0.399902 9.99844 0.399902C7.45236 0.399902 5.01056 1.41133 3.21021 3.21168C1.40986 5.01203 0.398438 7.45382 0.398438 9.9999C0.398438 12.546 1.40986 14.9878 3.21021 16.7881C5.01056 18.5885 7.45236 19.5999 9.99844 19.5999ZM6.39844 8.7999C6.7167 8.7999 7.02192 8.67347 7.24697 8.44843C7.47201 8.22339 7.59844 7.91816 7.59844 7.5999C7.59844 7.28164 7.47201 6.97642 7.24697 6.75137C7.02192 6.52633 6.7167 6.3999 6.39844 6.3999C6.08018 6.3999 5.77495 6.52633 5.54991 6.75137C5.32487 6.97642 5.19844 7.28164 5.19844 7.5999C5.19844 7.91816 5.32487 8.22339 5.54991 8.44843C5.77495 8.67347 6.08018 8.7999 6.39844 8.7999ZM14.7984 7.5999C14.7984 7.91816 14.672 8.22339 14.447 8.44843C14.2219 8.67347 13.9167 8.7999 13.5984 8.7999C13.2802 8.7999 12.975 8.67347 12.7499 8.44843C12.5249 8.22339 12.3984 7.91816 12.3984 7.5999C12.3984 7.28164 12.5249 6.97642 12.7499 6.75137C12.975 6.52633 13.2802 6.3999 13.5984 6.3999C13.9167 6.3999 14.2219 6.52633 14.447 6.75137C14.672 6.97642 14.7984 7.28164 14.7984 7.5999ZM14.2416 14.2419C14.3531 14.1304 14.4414 13.9981 14.5017 13.8524C14.5619 13.7068 14.5929 13.5507 14.5929 13.3931C14.5928 13.2355 14.5617 13.0794 14.5014 12.9338C14.441 12.7882 14.3525 12.6559 14.241 12.5445C14.1295 12.4331 13.9972 12.3447 13.8516 12.2845C13.7059 12.2242 13.5498 12.1932 13.3922 12.1933C13.2346 12.1933 13.0785 12.2244 12.9329 12.2848C12.7873 12.3452 12.6551 12.4336 12.5436 12.5451C11.8685 13.22 10.953 13.5991 9.99844 13.5991C9.04385 13.5991 8.12834 13.22 7.45324 12.5451C7.22823 12.3199 6.92299 12.1934 6.60466 12.1933C6.28634 12.1931 5.98101 12.3195 5.75584 12.5445C5.53067 12.7695 5.40411 13.0748 5.40399 13.3931C5.40388 13.7114 5.53023 14.0167 5.75524 14.2419C6.31241 14.7992 6.97391 15.2413 7.70197 15.5429C8.43003 15.8446 9.21037 15.9998 9.99844 15.9998C10.7865 15.9998 11.5668 15.8446 12.2949 15.5429C13.023 15.2413 13.6845 14.7992 14.2416 14.2419Z" fill="#EAB308"/>
</svg>
